<svg width="1653" height="993" xmlns="http://www.w3.org/2000/svg" xmlns:xlink="http://www.w3.org/1999/xlink" overflow="hidden"><defs><clipPath id="clip0"><rect x="1289" y="67" width="1653" height="993"/></clipPath><clipPath id="clip1"><rect x="1290" y="67" width="1650" height="990"/></clipPath><clipPath id="clip2"><rect x="1290" y="67" width="1650" height="990"/></clipPath><clipPath id="clip3"><rect x="1400" y="118" width="1493" height="731"/></clipPath><clipPath id="clip4"><rect x="1400" y="118" width="1493" height="731"/></clipPath><clipPath id="clip5"><rect x="1290" y="67" width="1650" height="990"/></clipPath><clipPath id="clip6"><rect x="1290" y="67" width="1650" height="990"/></clipPath><clipPath id="clip7"><rect x="1290" y="67" width="1650" height="990"/></clipPath><clipPath id="clip8"><rect x="1290" y="67" width="1650" height="990"/></clipPath><clipPath id="clip9"><rect x="1290" y="67" width="1650" height="990"/></clipPath><clipPath id="clip10"><rect x="1290" y="67" width="1650" height="990"/></clipPath><clipPath id="clip11"><rect x="1290" y="67" width="1650" height="990"/></clipPath><clipPath id="clip12"><rect x="1290" y="67" width="1650" height="990"/></clipPath><clipPath id="clip13"><rect x="1290" y="67" width="1650" height="990"/></clipPath><clipPath id="clip14"><rect x="1290" y="67" width="1650" height="990"/></clipPath><clipPath id="clip15"><rect x="1290" y="67" width="1650" height="990"/></clipPath><clipPath id="clip16"><rect x="1290" y="67" width="1650" height="990"/></clipPath><clipPath id="clip17"><rect x="1290" y="67" width="1650" height="990"/></clipPath><clipPath id="clip18"><rect x="1290" y="67" width="1650" height="990"/></clipPath><clipPath id="clip19"><rect x="1290" y="67" width="1650" height="990"/></clipPath><clipPath id="clip20"><rect x="1290" y="67" width="1650" height="990"/></clipPath><clipPath id="clip21"><rect x="1290" y="67" width="1650" height="990"/></clipPath><clipPath id="clip22"><rect x="1290" y="67" width="1650" height="990"/></clipPath><clipPath id="clip23"><rect x="1290" y="67" width="1650" height="990"/></clipPath></defs><g clip-path="url(#clip0)" transform="translate(-1289 -67)"><rect x="1290" y="68.0001" width="1650" height="990" fill="#FFFFFF"/><g clip-path="url(#clip1)"><path d="M1400.5 742.525 2889.5 742.525M1400.5 638.521 2889.5 638.521M1400.5 534.518 2889.5 534.518M1400.5 430.514 2889.5 430.514M1400.5 326.511 2889.5 326.511M1400.5 222.507 2889.5 222.507M1400.5 118.5 2889.5 118.5" stroke="#D9D9D9" stroke-width="3.4375" stroke-linejoin="round" stroke-miterlimit="10" fill="none"/></g><g clip-path="url(#clip2)"><path d="M1400.5 846.5 2889.5 846.501" stroke="#D9D9D9" stroke-width="3.4375" stroke-linejoin="round" stroke-miterlimit="10" fill="none" fill-rule="evenodd"/></g><g clip-path="url(#clip3)"><path d="M1506 472.015 1719.06 409 1932.06 430.014 2145.07 409 2358.08 534 2570.08 513.017 2783 513.017" stroke="#4472C4" stroke-width="10.3125" stroke-linecap="round" stroke-linejoin="round" stroke-miterlimit="10" fill="none"/></g><g clip-path="url(#clip4)"><path d="M1506 201 1719.06 243.008 1932.06 347.011 2145.07 285.009 2358.08 409 2570.08 368.012 2783 305.01" stroke="#ED7D31" stroke-width="10.3125" stroke-linecap="round" stroke-linejoin="round" stroke-miterlimit="10" fill="none"/></g><g clip-path="url(#clip5)"><text fill="#595959" font-family="Calibri,Calibri_MSFontService,sans-serif" font-weight="400" font-size="41" transform="matrix(1 0 0 1 1340.9 858)">0</text></g><g clip-path="url(#clip6)"><text fill="#595959" font-family="Calibri,Calibri_MSFontService,sans-serif" font-weight="400" font-size="41" transform="matrix(1 0 0 1 1340.9 754)">5</text></g><g clip-path="url(#clip7)"><text fill="#595959" font-family="Calibri,Calibri_MSFontService,sans-serif" font-weight="400" font-size="41" transform="matrix(1 0 0 1 1320 650)">10</text></g><g clip-path="url(#clip8)"><text fill="#595959" font-family="Calibri,Calibri_MSFontService,sans-serif" font-weight="400" font-size="41" transform="matrix(1 0 0 1 1320 546)">15</text></g><g clip-path="url(#clip9)"><text fill="#595959" font-family="Calibri,Calibri_MSFontService,sans-serif" font-weight="400" font-size="41" transform="matrix(1 0 0 1 1320 442)">20</text></g><g clip-path="url(#clip10)"><text fill="#595959" font-family="Calibri,Calibri_MSFontService,sans-serif" font-weight="400" font-size="41" transform="matrix(1 0 0 1 1320 338)">25</text></g><g clip-path="url(#clip11)"><text fill="#595959" font-family="Calibri,Calibri_MSFontService,sans-serif" font-weight="400" font-size="41" transform="matrix(1 0 0 1 1320 234)">30</text></g><g clip-path="url(#clip12)"><text fill="#595959" font-family="Calibri,Calibri_MSFontService,sans-serif" font-weight="400" font-size="41" transform="matrix(1 0 0 1 1320 130)">35</text></g><g clip-path="url(#clip13)"><text fill="#595959" font-family="Calibri,Calibri_MSFontService,sans-serif" font-weight="400" font-size="41" transform="matrix(1 0 0 1 1485.58 912)">23</text></g><g clip-path="url(#clip14)"><text fill="#595959" font-family="Calibri,Calibri_MSFontService,sans-serif" font-weight="400" font-size="41" transform="matrix(1 0 0 1 1698.39 912)">24</text></g><g clip-path="url(#clip15)"><text fill="#595959" font-family="Calibri,Calibri_MSFontService,sans-serif" font-weight="400" font-size="41" transform="matrix(1 0 0 1 1911.21 912)">25</text></g><g clip-path="url(#clip16)"><text fill="#595959" font-family="Calibri,Calibri_MSFontService,sans-serif" font-weight="400" font-size="41" transform="matrix(1 0 0 1 2124.03 912)">26</text></g><g clip-path="url(#clip17)"><text fill="#595959" font-family="Calibri,Calibri_MSFontService,sans-serif" font-weight="400" font-size="41" transform="matrix(1 0 0 1 2336.85 912)">27</text></g><g clip-path="url(#clip18)"><text fill="#595959" font-family="Calibri,Calibri_MSFontService,sans-serif" font-weight="400" font-size="41" transform="matrix(1 0 0 1 2549.66 912)">28</text></g><g clip-path="url(#clip19)"><text fill="#595959" font-family="Calibri,Calibri_MSFontService,sans-serif" font-weight="400" font-size="41" transform="matrix(1 0 0 1 2762.48 912)">29</text></g><g clip-path="url(#clip20)"><path d="M1924 991 2012 991" stroke="#4472C4" stroke-width="10.3125" stroke-linecap="round" stroke-linejoin="round" stroke-miterlimit="10" fill="none" fill-rule="evenodd"/></g><g clip-path="url(#clip21)"><text fill="#595959" font-family="Yu Gothic,Yu Gothic_MSFontService,sans-serif" font-weight="400" font-size="41" transform="matrix(1 0 0 1 2021.59 1004)">最低</text></g><g clip-path="url(#clip22)"><path d="M2142 991 2230 991" stroke="#ED7D31" stroke-width="10.3125" stroke-linecap="round" stroke-linejoin="round" stroke-miterlimit="10" fill="none" fill-rule="evenodd"/></g><g clip-path="url(#clip23)"><text fill="#595959" font-family="Yu Gothic,Yu Gothic_MSFontService,sans-serif" font-weight="400" font-size="41" transform="matrix(1 0 0 1 2239.76 1004)">最高</text></g><rect x="1290.5" y="68.4999" width="1650" height="990" stroke="#D9D9D9" stroke-width="3.4375" stroke-linejoin="round" stroke-miterlimit="10" fill="none"/></g></svg>