<svg width="1653" height="993" xmlns="http://www.w3.org/2000/svg" xmlns:xlink="http://www.w3.org/1999/xlink" overflow="hidden"><defs><clipPath id="clip0"><rect x="1289" y="117" width="1653" height="993"/></clipPath><clipPath id="clip1"><rect x="1290" y="118" width="1650" height="990"/></clipPath><clipPath id="clip2"><rect x="1290" y="118" width="1650" height="990"/></clipPath><clipPath id="clip3"><rect x="1400" y="168" width="1493" height="732"/></clipPath><clipPath id="clip4"><rect x="1400" y="168" width="1493" height="732"/></clipPath><clipPath id="clip5"><rect x="1290" y="118" width="1650" height="990"/></clipPath><clipPath id="clip6"><rect x="1290" y="118" width="1650" height="990"/></clipPath><clipPath id="clip7"><rect x="1290" y="118" width="1650" height="990"/></clipPath><clipPath id="clip8"><rect x="1290" y="118" width="1650" height="990"/></clipPath><clipPath id="clip9"><rect x="1290" y="118" width="1650" height="990"/></clipPath><clipPath id="clip10"><rect x="1290" y="118" width="1650" height="990"/></clipPath><clipPath id="clip11"><rect x="1290" y="118" width="1650" height="990"/></clipPath><clipPath id="clip12"><rect x="1290" y="118" width="1650" height="990"/></clipPath><clipPath id="clip13"><rect x="1290" y="118" width="1650" height="990"/></clipPath><clipPath id="clip14"><rect x="1290" y="118" width="1650" height="990"/></clipPath><clipPath id="clip15"><rect x="1290" y="118" width="1650" height="990"/></clipPath><clipPath id="clip16"><rect x="1290" y="118" width="1650" height="990"/></clipPath><clipPath id="clip17"><rect x="1290" y="118" width="1650" height="990"/></clipPath><clipPath id="clip18"><rect x="1290" y="118" width="1650" height="990"/></clipPath><clipPath id="clip19"><rect x="1290" y="118" width="1650" height="990"/></clipPath><clipPath id="clip20"><rect x="1290" y="118" width="1650" height="990"/></clipPath><clipPath id="clip21"><rect x="1290" y="118" width="1650" height="990"/></clipPath><clipPath id="clip22"><rect x="1290" y="118" width="1650" height="990"/></clipPath></defs><g clip-path="url(#clip0)" transform="translate(-1289 -117)"><rect x="1290" y="118" width="1650" height="990" fill="#FFFFFF"/><g clip-path="url(#clip1)"><path d="M1400.5 775.526 2889.5 775.526M1400.5 654.522 2889.5 654.522M1400.5 532.518 2889.5 532.518M1400.5 411.514 2889.5 411.514M1400.5 289.51 2889.5 289.51M1400.5 168.5 2889.5 168.5" stroke="#D9D9D9" stroke-width="3.4375" stroke-linejoin="round" stroke-miterlimit="10" fill="none"/></g><g clip-path="url(#clip2)"><path d="M1400.5 896.5 2889.5 896.5" stroke="#D9D9D9" stroke-width="3.4375" stroke-linejoin="round" stroke-miterlimit="10" fill="none" fill-rule="evenodd"/></g><g clip-path="url(#clip3)"><path d="M1506 533 1719.06 508.017 1932.06 436 2145.07 508.017 2358.08 436 2570.08 460.015 2783 436" stroke="#4472C4" stroke-width="10.3125" stroke-linecap="round" stroke-linejoin="round" stroke-miterlimit="10" fill="none"/></g><g clip-path="url(#clip4)"><path d="M1506 290.01 1719.06 314.01 1932.06 290.01 2145.07 290.01 2358.08 266 2570.08 314.01 2783 387" stroke="#ED7D31" stroke-width="10.3125" stroke-linecap="round" stroke-linejoin="round" stroke-miterlimit="10" fill="none"/></g><g clip-path="url(#clip5)"><text fill="#595959" font-family="Calibri,Calibri_MSFontService,sans-serif" font-weight="400" font-size="41" transform="matrix(1 0 0 1 1340.9 908)">0</text></g><g clip-path="url(#clip6)"><text fill="#595959" font-family="Calibri,Calibri_MSFontService,sans-serif" font-weight="400" font-size="41" transform="matrix(1 0 0 1 1340.9 787)">5</text></g><g clip-path="url(#clip7)"><text fill="#595959" font-family="Calibri,Calibri_MSFontService,sans-serif" font-weight="400" font-size="41" transform="matrix(1 0 0 1 1320 666)">10</text></g><g clip-path="url(#clip8)"><text fill="#595959" font-family="Calibri,Calibri_MSFontService,sans-serif" font-weight="400" font-size="41" transform="matrix(1 0 0 1 1320 544)">15</text></g><g clip-path="url(#clip9)"><text fill="#595959" font-family="Calibri,Calibri_MSFontService,sans-serif" font-weight="400" font-size="41" transform="matrix(1 0 0 1 1320 423)">20</text></g><g clip-path="url(#clip10)"><text fill="#595959" font-family="Calibri,Calibri_MSFontService,sans-serif" font-weight="400" font-size="41" transform="matrix(1 0 0 1 1320 301)">25</text></g><g clip-path="url(#clip11)"><text fill="#595959" font-family="Calibri,Calibri_MSFontService,sans-serif" font-weight="400" font-size="41" transform="matrix(1 0 0 1 1320 180)">30</text></g><g clip-path="url(#clip12)"><text fill="#595959" font-family="Calibri,Calibri_MSFontService,sans-serif" font-weight="400" font-size="41" transform="matrix(1 0 0 1 1485.58 962)">17</text></g><g clip-path="url(#clip13)"><text fill="#595959" font-family="Calibri,Calibri_MSFontService,sans-serif" font-weight="400" font-size="41" transform="matrix(1 0 0 1 1698.39 962)">18</text></g><g clip-path="url(#clip14)"><text fill="#595959" font-family="Calibri,Calibri_MSFontService,sans-serif" font-weight="400" font-size="41" transform="matrix(1 0 0 1 1911.21 962)">19</text></g><g clip-path="url(#clip15)"><text fill="#595959" font-family="Calibri,Calibri_MSFontService,sans-serif" font-weight="400" font-size="41" transform="matrix(1 0 0 1 2124.03 962)">20</text></g><g clip-path="url(#clip16)"><text fill="#595959" font-family="Calibri,Calibri_MSFontService,sans-serif" font-weight="400" font-size="41" transform="matrix(1 0 0 1 2336.85 962)">21</text></g><g clip-path="url(#clip17)"><text fill="#595959" font-family="Calibri,Calibri_MSFontService,sans-serif" font-weight="400" font-size="41" transform="matrix(1 0 0 1 2549.66 962)">22</text></g><g clip-path="url(#clip18)"><text fill="#595959" font-family="Calibri,Calibri_MSFontService,sans-serif" font-weight="400" font-size="41" transform="matrix(1 0 0 1 2762.48 962)">23</text></g><g clip-path="url(#clip19)"><path d="M1924 1042 2012 1042" stroke="#4472C4" stroke-width="10.3125" stroke-linecap="round" stroke-linejoin="round" stroke-miterlimit="10" fill="none" fill-rule="evenodd"/></g><g clip-path="url(#clip20)"><text fill="#595959" font-family="Yu Gothic,Yu Gothic_MSFontService,sans-serif" font-weight="400" font-size="41" transform="matrix(1 0 0 1 2021.59 1054)">最低</text></g><g clip-path="url(#clip21)"><path d="M2142 1042 2230 1042" stroke="#ED7D31" stroke-width="10.3125" stroke-linecap="round" stroke-linejoin="round" stroke-miterlimit="10" fill="none" fill-rule="evenodd"/></g><g clip-path="url(#clip22)"><text fill="#595959" font-family="Yu Gothic,Yu Gothic_MSFontService,sans-serif" font-weight="400" font-size="41" transform="matrix(1 0 0 1 2239.76 1054)">最高</text></g><rect x="1290.5" y="118.5" width="1650" height="990" stroke="#D9D9D9" stroke-width="3.4375" stroke-linejoin="round" stroke-miterlimit="10" fill="none"/></g></svg>